<svg xmlns="http://www.w3.org/2000/svg" viewBox="0 0 512 512" width="512" height="512">
  <defs>
    <radialGradient id="lamp" cx="50%" cy="44%" r="60%">
      <stop offset="0%" stop-color="#F0C67C" stop-opacity="0.42"/>
      <stop offset="48%" stop-color="#B4442E" stop-opacity="0.12"/>
      <stop offset="100%" stop-color="#14100B" stop-opacity="0"/>
    </radialGradient>
    <radialGradient id="wax" cx="40%" cy="34%" r="72%">
      <stop offset="0%" stop-color="#C85238"/>
      <stop offset="100%" stop-color="#7E2A1B"/>
    </radialGradient>
  </defs>
  <rect width="512" height="512" fill="#14100B"/>
  <!-- сложенный лист за печатью -->
  <rect x="150" y="120" width="212" height="272" rx="6" fill="#F6EDD9" opacity="0.10"/>
  <line x1="182" y1="176" x2="330" y2="176" stroke="#F6EDD9" stroke-opacity="0.14" stroke-width="3"/>
  <line x1="182" y1="336" x2="330" y2="336" stroke="#F6EDD9" stroke-opacity="0.14" stroke-width="3"/>
  <!-- тёплый круг светильника -->
  <circle cx="256" cy="236" r="220" fill="url(#lamp)"/>
  <!-- восковая печать с оттиском клепсидры -->
  <circle cx="256" cy="256" r="92" fill="url(#wax)"/>
  <circle cx="256" cy="256" r="92" fill="none" stroke="#5C1E12" stroke-width="4" opacity="0.6"/>
  <g transform="translate(256,256) scale(4.6) translate(-12,-12)" fill="none" stroke="#FBE8DC" stroke-width="1.1" stroke-linecap="round" stroke-linejoin="round" opacity="0.9">
    <path d="M7 3h10M7 21h10M8 3c0 4.5 4 5.5 4 9M16 3c0 4.5-4 5.5-4 9M8 21c0-4.5 4-5.5 4-9M16 21c0-4.5-4-5.5-4-9"/>
    <circle cx="12" cy="16" r="0.7"/>
  </g>
</svg>
